solid CATIA STL
  facet normal  1.000000e+000  -0.000000e+000  0.000000e+000
    outer loop
      vertex  1.000000e+000 -8.000000e-001 -1.000000e+000
      vertex  1.000000e+000 -2.296592e+000 -6.958759e+000
      vertex  1.000000e+000 -1.300000e+000 -7.041241e+000
    endloop
  endfacet
  facet normal  1.000000e+000  0.000000e+000  0.000000e+000
    outer loop
      vertex  1.000000e+000 -1.720655e+000  0.000000e+000
      vertex  1.000000e+000 -2.296592e+000 -6.958759e+000
      vertex  1.000000e+000 -8.000000e-001 -1.000000e+000
    endloop
  endfacet
  facet normal  1.000000e+000  0.000000e+000  -0.000000e+000
    outer loop
      vertex  1.000000e+000 -1.720655e+000  0.000000e+000
      vertex  1.000000e+000 -8.000000e-001 -1.000000e+000
      vertex  1.000000e+000  8.000000e-001 -1.000000e+000
    endloop
  endfacet
  facet normal  1.000000e+000  0.000000e+000  -0.000000e+000
    outer loop
      vertex  1.000000e+000 -1.720655e+000  0.000000e+000
      vertex  1.000000e+000  8.000000e-001 -1.000000e+000
      vertex  1.000000e+000  1.720655e+000  8.881784e-016
    endloop
  endfacet
  facet normal  1.000000e+000  0.000000e+000  0.000000e+000
    outer loop
      vertex  1.000000e+000 -1.300000e+000 -7.041241e+000
      vertex  1.000000e+000 -2.296592e+000 -6.958759e+000
      vertex  1.000000e+000 -1.387380e+000 -7.284864e+000
    endloop
  endfacet
  facet normal  1.000000e+000  0.000000e+000  0.000000e+000
    outer loop
      vertex  1.000000e+000 -1.387380e+000 -7.284864e+000
      vertex  1.000000e+000 -2.296592e+000 -6.958759e+000
      vertex  1.000000e+000 -2.250454e+000 -7.213432e+000
    endloop
  endfacet
  facet normal  1.000000e+000  0.000000e+000  0.000000e+000
    outer loop
      vertex  1.000000e+000 -1.387380e+000 -7.284864e+000
      vertex  1.000000e+000 -2.250454e+000 -7.213432e+000
      vertex  1.000000e+000 -1.584864e+000 -7.452158e+000
    endloop
  endfacet
  facet normal  1.000000e+000  0.000000e+000  0.000000e+000
    outer loop
      vertex  1.000000e+000 -1.584864e+000 -7.452158e+000
      vertex  1.000000e+000 -2.250454e+000 -7.213432e+000
      vertex  1.000000e+000 -2.083160e+000 -7.410917e+000
    endloop
  endfacet
  facet normal  1.000000e+000  0.000000e+000  0.000000e+000
    outer loop
      vertex  1.000000e+000 -1.584864e+000 -7.452158e+000
      vertex  1.000000e+000 -2.083160e+000 -7.410917e+000
      vertex  1.000000e+000 -1.839538e+000 -7.498296e+000
    endloop
  endfacet
  facet normal  9.999999e-001  -0.000000e+000  0.000000e+000
    outer loop
      vertex  1.000000e+000  1.720655e+000  8.881784e-016
      vertex  1.000000e+000  8.000000e-001 -1.000000e+000
      vertex  1.000000e+000  2.296592e+000 -6.958759e+000
    endloop
  endfacet
  facet normal  1.000000e+000  0.000000e+000  0.000000e+000
    outer loop
      vertex  1.000000e+000  2.296592e+000 -6.958759e+000
      vertex  1.000000e+000  8.000000e-001 -1.000000e+000
      vertex  1.000000e+000  1.300000e+000 -7.041241e+000
    endloop
  endfacet
  facet normal  1.000000e+000  -0.000000e+000  0.000000e+000
    outer loop
      vertex  1.000000e+000  2.296592e+000 -6.958759e+000
      vertex  1.000000e+000  1.300000e+000 -7.041241e+000
      vertex  1.000000e+000  2.250454e+000 -7.213432e+000
    endloop
  endfacet
  facet normal  9.999999e-001  0.000000e+000  0.000000e+000
    outer loop
      vertex  1.000000e+000  2.250454e+000 -7.213432e+000
      vertex  1.000000e+000  1.300000e+000 -7.041241e+000
      vertex  1.000000e+000  1.387380e+000 -7.284864e+000
    endloop
  endfacet
  facet normal  1.000000e+000  -0.000000e+000  0.000000e+000
    outer loop
      vertex  1.000000e+000  2.250454e+000 -7.213432e+000
      vertex  1.000000e+000  1.387380e+000 -7.284864e+000
      vertex  1.000000e+000  2.083160e+000 -7.410917e+000
    endloop
  endfacet
  facet normal  9.999999e-001  0.000000e+000  0.000000e+000
    outer loop
      vertex  1.000000e+000  2.083160e+000 -7.410917e+000
      vertex  1.000000e+000  1.387380e+000 -7.284864e+000
      vertex  1.000000e+000  1.584864e+000 -7.452158e+000
    endloop
  endfacet
  facet normal  1.000000e+000  -0.000000e+000  0.000000e+000
    outer loop
      vertex  1.000000e+000  2.083160e+000 -7.410917e+000
      vertex  1.000000e+000  1.584864e+000 -7.452158e+000
      vertex  1.000000e+000  1.839538e+000 -7.498296e+000
    endloop
  endfacet
  facet normal -1.000000e+000  0.000000e+000  0.000000e+000
    outer loop
      vertex  0.000000e+000 -1.300000e+000 -7.041241e+000
      vertex  0.000000e+000 -2.296592e+000 -6.958759e+000
      vertex  0.000000e+000 -8.000000e-001 -1.000000e+000
    endloop
  endfacet
  facet normal -1.000000e+000  0.000000e+000  0.000000e+000
    outer loop
      vertex  0.000000e+000 -1.720655e+000  0.000000e+000
      vertex  0.000000e+000  1.720655e+000  8.881784e-016
      vertex  0.000000e+000  8.000000e-001 -1.000000e+000
    endloop
  endfacet
  facet normal -1.000000e+000  0.000000e+000  0.000000e+000
    outer loop
      vertex  0.000000e+000 -1.720655e+000  0.000000e+000
      vertex  0.000000e+000  8.000000e-001 -1.000000e+000
      vertex  0.000000e+000 -8.000000e-001 -1.000000e+000
    endloop
  endfacet
  facet normal -9.999999e-001  -0.000000e+000  0.000000e+000
    outer loop
      vertex  0.000000e+000 -1.720655e+000  0.000000e+000
      vertex  0.000000e+000 -8.000000e-001 -1.000000e+000
      vertex  0.000000e+000 -2.296592e+000 -6.958759e+000
    endloop
  endfacet
  facet normal -1.000000e+000  0.000000e+000  0.000000e+000
    outer loop
      vertex  0.000000e+000 -1.839538e+000 -7.498296e+000
      vertex  0.000000e+000 -2.083160e+000 -7.410917e+000
      vertex  0.000000e+000 -1.584864e+000 -7.452158e+000
    endloop
  endfacet
  facet normal -1.000000e+000  0.000000e+000  0.000000e+000
    outer loop
      vertex  0.000000e+000 -1.584864e+000 -7.452158e+000
      vertex  0.000000e+000 -2.083160e+000 -7.410917e+000
      vertex  0.000000e+000 -2.250454e+000 -7.213432e+000
    endloop
  endfacet
  facet normal -1.000000e+000  0.000000e+000  0.000000e+000
    outer loop
      vertex  0.000000e+000 -1.584864e+000 -7.452158e+000
      vertex  0.000000e+000 -2.250454e+000 -7.213432e+000
      vertex  0.000000e+000 -1.387380e+000 -7.284864e+000
    endloop
  endfacet
  facet normal -1.000000e+000  0.000000e+000  0.000000e+000
    outer loop
      vertex  0.000000e+000 -1.387380e+000 -7.284864e+000
      vertex  0.000000e+000 -2.250454e+000 -7.213432e+000
      vertex  0.000000e+000 -2.296592e+000 -6.958759e+000
    endloop
  endfacet
  facet normal -1.000000e+000  0.000000e+000  0.000000e+000
    outer loop
      vertex  0.000000e+000 -1.387380e+000 -7.284864e+000
      vertex  0.000000e+000 -2.296592e+000 -6.958759e+000
      vertex  0.000000e+000 -1.300000e+000 -7.041241e+000
    endloop
  endfacet
  facet normal -1.000000e+000  0.000000e+000  0.000000e+000
    outer loop
      vertex  0.000000e+000  1.839538e+000 -7.498296e+000
      vertex  0.000000e+000  1.584864e+000 -7.452158e+000
      vertex  0.000000e+000  2.083160e+000 -7.410917e+000
    endloop
  endfacet
  facet normal -9.999999e-001  -0.000000e+000  0.000000e+000
    outer loop
      vertex  0.000000e+000  2.083160e+000 -7.410917e+000
      vertex  0.000000e+000  1.584864e+000 -7.452158e+000
      vertex  0.000000e+000  1.387380e+000 -7.284864e+000
    endloop
  endfacet
  facet normal -1.000000e+000  0.000000e+000  0.000000e+000
    outer loop
      vertex  0.000000e+000  2.083160e+000 -7.410917e+000
      vertex  0.000000e+000  1.387380e+000 -7.284864e+000
      vertex  0.000000e+000  2.250454e+000 -7.213432e+000
    endloop
  endfacet
  facet normal -9.999999e-001  -0.000000e+000  0.000000e+000
    outer loop
      vertex  0.000000e+000  2.250454e+000 -7.213432e+000
      vertex  0.000000e+000  1.387380e+000 -7.284864e+000
      vertex  0.000000e+000  1.300000e+000 -7.041241e+000
    endloop
  endfacet
  facet normal -1.000000e+000  0.000000e+000  0.000000e+000
    outer loop
      vertex  0.000000e+000  2.250454e+000 -7.213432e+000
      vertex  0.000000e+000  1.300000e+000 -7.041241e+000
      vertex  0.000000e+000  2.296592e+000 -6.958759e+000
    endloop
  endfacet
  facet normal -1.000000e+000  -0.000000e+000  0.000000e+000
    outer loop
      vertex  0.000000e+000  2.296592e+000 -6.958759e+000
      vertex  0.000000e+000  1.300000e+000 -7.041241e+000
      vertex  0.000000e+000  8.000000e-001 -1.000000e+000
    endloop
  endfacet
  facet normal -9.999999e-001  0.000000e+000  0.000000e+000
    outer loop
      vertex  0.000000e+000  2.296592e+000 -6.958759e+000
      vertex  0.000000e+000  8.000000e-001 -1.000000e+000
      vertex  0.000000e+000  1.720655e+000  8.881784e-016
    endloop
  endfacet
  facet normal  0.000000e+000 -2.580932e-016  1.000000e+000
    outer loop
      vertex  1.000000e+000 -1.720655e+000  0.000000e+000
      vertex  1.000000e+000  1.720655e+000  8.881784e-016
      vertex  0.000000e+000 -1.720655e+000  0.000000e+000
    endloop
  endfacet
  facet normal  0.000000e+000 -2.580932e-016  1.000000e+000
    outer loop
      vertex  0.000000e+000 -1.720655e+000  0.000000e+000
      vertex  1.000000e+000  1.720655e+000  8.881784e-016
      vertex  0.000000e+000  1.720655e+000  8.881784e-016
    endloop
  endfacet
  facet normal  0.000000e+000  9.965925e-001  8.248242e-002
    outer loop
      vertex  1.000000e+000  1.720655e+000  8.881784e-016
      vertex  1.000000e+000  2.296592e+000 -6.958759e+000
      vertex  0.000000e+000  1.720655e+000  8.881784e-016
    endloop
  endfacet
  facet normal  0.000000e+000  9.965925e-001  8.248242e-002
    outer loop
      vertex  0.000000e+000  1.720655e+000  8.881784e-016
      vertex  1.000000e+000  2.296592e+000 -6.958759e+000
      vertex  0.000000e+000  2.296592e+000 -6.958759e+000
    endloop
  endfacet
  facet normal  0.000000e+000  9.839826e-001 -1.782646e-001
    outer loop
      vertex  0.000000e+000  2.296592e+000 -6.958759e+000
      vertex  1.000000e+000  2.296592e+000 -6.958759e+000
      vertex  0.000000e+000  2.250454e+000 -7.213432e+000
    endloop
  endfacet
  facet normal  0.000000e+000  9.839826e-001 -1.782646e-001
    outer loop
      vertex  0.000000e+000  2.250454e+000 -7.213432e+000
      vertex  1.000000e+000  2.296592e+000 -6.958759e+000
      vertex  1.000000e+000  2.250454e+000 -7.213432e+000
    endloop
  endfacet
  facet normal  0.000000e+000  7.630213e-001 -6.463735e-001
    outer loop
      vertex  0.000000e+000  2.250454e+000 -7.213432e+000
      vertex  1.000000e+000  2.250454e+000 -7.213432e+000
      vertex  0.000000e+000  2.083160e+000 -7.410917e+000
    endloop
  endfacet
  facet normal  0.000000e+000  7.630213e-001 -6.463735e-001
    outer loop
      vertex  0.000000e+000  2.083160e+000 -7.410917e+000
      vertex  1.000000e+000  2.250454e+000 -7.213432e+000
      vertex  1.000000e+000  2.083160e+000 -7.410917e+000
    endloop
  endfacet
  facet normal  0.000000e+000  3.376083e-001 -9.412866e-001
    outer loop
      vertex  0.000000e+000  2.083160e+000 -7.410917e+000
      vertex  1.000000e+000  2.083160e+000 -7.410917e+000
      vertex  0.000000e+000  1.839538e+000 -7.498296e+000
    endloop
  endfacet
  facet normal  0.000000e+000  3.376083e-001 -9.412866e-001
    outer loop
      vertex  0.000000e+000  1.839538e+000 -7.498296e+000
      vertex  1.000000e+000  2.083160e+000 -7.410917e+000
      vertex  1.000000e+000  1.839538e+000 -7.498296e+000
    endloop
  endfacet
  facet normal  -0.000000e+000 -1.782646e-001 -9.839826e-001
    outer loop
      vertex  0.000000e+000  1.839538e+000 -7.498296e+000
      vertex  1.000000e+000  1.839538e+000 -7.498296e+000
      vertex  0.000000e+000  1.584864e+000 -7.452158e+000
    endloop
  endfacet
  facet normal  0.000000e+000 -1.782646e-001 -9.839826e-001
    outer loop
      vertex  0.000000e+000  1.584864e+000 -7.452158e+000
      vertex  1.000000e+000  1.839538e+000 -7.498296e+000
      vertex  1.000000e+000  1.584864e+000 -7.452158e+000
    endloop
  endfacet
  facet normal  -0.000000e+000 -6.463742e-001 -7.630207e-001
    outer loop
      vertex  0.000000e+000  1.584864e+000 -7.452158e+000
      vertex  1.000000e+000  1.584864e+000 -7.452158e+000
      vertex  0.000000e+000  1.387380e+000 -7.284864e+000
    endloop
  endfacet
  facet normal  0.000000e+000 -6.463742e-001 -7.630207e-001
    outer loop
      vertex  0.000000e+000  1.387380e+000 -7.284864e+000
      vertex  1.000000e+000  1.584864e+000 -7.452158e+000
      vertex  1.000000e+000  1.387380e+000 -7.284864e+000
    endloop
  endfacet
  facet normal  -0.000000e+000 -9.412864e-001 -3.376093e-001
    outer loop
      vertex  0.000000e+000  1.387380e+000 -7.284864e+000
      vertex  1.000000e+000  1.387380e+000 -7.284864e+000
      vertex  0.000000e+000  1.300000e+000 -7.041241e+000
    endloop
  endfacet
  facet normal  0.000000e+000 -9.412864e-001 -3.376093e-001
    outer loop
      vertex  0.000000e+000  1.300000e+000 -7.041241e+000
      vertex  1.000000e+000  1.387380e+000 -7.284864e+000
      vertex  1.000000e+000  1.300000e+000 -7.041241e+000
    endloop
  endfacet
  facet normal  0.000000e+000 -9.965926e-001 -8.248243e-002
    outer loop
      vertex  1.000000e+000  1.300000e+000 -7.041241e+000
      vertex  1.000000e+000  8.000000e-001 -1.000000e+000
      vertex  0.000000e+000  1.300000e+000 -7.041241e+000
    endloop
  endfacet
  facet normal  0.000000e+000 -9.965926e-001 -8.248243e-002
    outer loop
      vertex  0.000000e+000  1.300000e+000 -7.041241e+000
      vertex  1.000000e+000  8.000000e-001 -1.000000e+000
      vertex  0.000000e+000  8.000000e-001 -1.000000e+000
    endloop
  endfacet
  facet normal  0.000000e+000  0.000000e+000 -1.000000e+000
    outer loop
      vertex  1.000000e+000  8.000000e-001 -1.000000e+000
      vertex  1.000000e+000 -8.000000e-001 -1.000000e+000
      vertex  0.000000e+000  8.000000e-001 -1.000000e+000
    endloop
  endfacet
  facet normal  0.000000e+000  0.000000e+000 -1.000000e+000
    outer loop
      vertex  0.000000e+000  8.000000e-001 -1.000000e+000
      vertex  1.000000e+000 -8.000000e-001 -1.000000e+000
      vertex  0.000000e+000 -8.000000e-001 -1.000000e+000
    endloop
  endfacet
  facet normal  0.000000e+000  9.965926e-001 -8.248243e-002
    outer loop
      vertex  1.000000e+000 -8.000000e-001 -1.000000e+000
      vertex  1.000000e+000 -1.300000e+000 -7.041241e+000
      vertex  0.000000e+000 -8.000000e-001 -1.000000e+000
    endloop
  endfacet
  facet normal  0.000000e+000  9.965926e-001 -8.248243e-002
    outer loop
      vertex  0.000000e+000 -8.000000e-001 -1.000000e+000
      vertex  1.000000e+000 -1.300000e+000 -7.041241e+000
      vertex  0.000000e+000 -1.300000e+000 -7.041241e+000
    endloop
  endfacet
  facet normal  0.000000e+000  9.412864e-001 -3.376093e-001
    outer loop
      vertex  0.000000e+000 -1.300000e+000 -7.041241e+000
      vertex  1.000000e+000 -1.300000e+000 -7.041241e+000
      vertex  0.000000e+000 -1.387380e+000 -7.284864e+000
    endloop
  endfacet
  facet normal  0.000000e+000  9.412864e-001 -3.376093e-001
    outer loop
      vertex  0.000000e+000 -1.387380e+000 -7.284864e+000
      vertex  1.000000e+000 -1.300000e+000 -7.041241e+000
      vertex  1.000000e+000 -1.387380e+000 -7.284864e+000
    endloop
  endfacet
  facet normal  0.000000e+000  6.463742e-001 -7.630207e-001
    outer loop
      vertex  0.000000e+000 -1.387380e+000 -7.284864e+000
      vertex  1.000000e+000 -1.387380e+000 -7.284864e+000
      vertex  0.000000e+000 -1.584864e+000 -7.452158e+000
    endloop
  endfacet
  facet normal  0.000000e+000  6.463742e-001 -7.630207e-001
    outer loop
      vertex  0.000000e+000 -1.584864e+000 -7.452158e+000
      vertex  1.000000e+000 -1.387380e+000 -7.284864e+000
      vertex  1.000000e+000 -1.584864e+000 -7.452158e+000
    endloop
  endfacet
  facet normal  0.000000e+000  1.782646e-001 -9.839826e-001
    outer loop
      vertex  0.000000e+000 -1.584864e+000 -7.452158e+000
      vertex  1.000000e+000 -1.584864e+000 -7.452158e+000
      vertex  0.000000e+000 -1.839538e+000 -7.498296e+000
    endloop
  endfacet
  facet normal  0.000000e+000  1.782646e-001 -9.839826e-001
    outer loop
      vertex  0.000000e+000 -1.839538e+000 -7.498296e+000
      vertex  1.000000e+000 -1.584864e+000 -7.452158e+000
      vertex  1.000000e+000 -1.839538e+000 -7.498296e+000
    endloop
  endfacet
  facet normal  -0.000000e+000 -3.376083e-001 -9.412866e-001
    outer loop
      vertex  0.000000e+000 -1.839538e+000 -7.498296e+000
      vertex  1.000000e+000 -1.839538e+000 -7.498296e+000
      vertex  0.000000e+000 -2.083160e+000 -7.410917e+000
    endloop
  endfacet
  facet normal  0.000000e+000 -3.376083e-001 -9.412866e-001
    outer loop
      vertex  0.000000e+000 -2.083160e+000 -7.410917e+000
      vertex  1.000000e+000 -1.839538e+000 -7.498296e+000
      vertex  1.000000e+000 -2.083160e+000 -7.410917e+000
    endloop
  endfacet
  facet normal  -0.000000e+000 -7.630213e-001 -6.463735e-001
    outer loop
      vertex  0.000000e+000 -2.083160e+000 -7.410917e+000
      vertex  1.000000e+000 -2.083160e+000 -7.410917e+000
      vertex  0.000000e+000 -2.250454e+000 -7.213432e+000
    endloop
  endfacet
  facet normal  0.000000e+000 -7.630213e-001 -6.463735e-001
    outer loop
      vertex  0.000000e+000 -2.250454e+000 -7.213432e+000
      vertex  1.000000e+000 -2.083160e+000 -7.410917e+000
      vertex  1.000000e+000 -2.250454e+000 -7.213432e+000
    endloop
  endfacet
  facet normal  -0.000000e+000 -9.839826e-001 -1.782646e-001
    outer loop
      vertex  0.000000e+000 -2.250454e+000 -7.213432e+000
      vertex  1.000000e+000 -2.250454e+000 -7.213432e+000
      vertex  0.000000e+000 -2.296592e+000 -6.958759e+000
    endloop
  endfacet
  facet normal  0.000000e+000 -9.839826e-001 -1.782646e-001
    outer loop
      vertex  0.000000e+000 -2.296592e+000 -6.958759e+000
      vertex  1.000000e+000 -2.250454e+000 -7.213432e+000
      vertex  1.000000e+000 -2.296592e+000 -6.958759e+000
    endloop
  endfacet
  facet normal  0.000000e+000 -9.965925e-001  8.248242e-002
    outer loop
      vertex  1.000000e+000 -2.296592e+000 -6.958759e+000
      vertex  1.000000e+000 -1.720655e+000  0.000000e+000
      vertex  0.000000e+000 -2.296592e+000 -6.958759e+000
    endloop
  endfacet
  facet normal  0.000000e+000 -9.965925e-001  8.248242e-002
    outer loop
      vertex  0.000000e+000 -2.296592e+000 -6.958759e+000
      vertex  1.000000e+000 -1.720655e+000  0.000000e+000
      vertex  0.000000e+000 -1.720655e+000  0.000000e+000
    endloop
  endfacet
endsolid CATIA STL
