solid CATIA STL
  facet normal  1.000000e+000  0.000000e+000  -0.000000e+000
    outer loop
      vertex  3.000000e+000 -1.797164e+000 -7.037630e+000
      vertex  3.000000e+000 -1.711552e+000 -7.281879e+000
      vertex  3.000000e+000 -8.479825e-001 -7.216703e+000
    endloop
  endfacet
  facet normal  1.000000e+000  0.000000e+000  -0.000000e+000
    outer loop
      vertex  3.000000e+000 -1.797164e+000 -7.037630e+000
      vertex  3.000000e+000 -8.479825e-001 -7.216703e+000
      vertex  3.000000e+000 -8.000000e-001 -6.962370e+000
    endloop
  endfacet
  facet normal  1.000000e+000  0.000000e+000  0.000000e+000
    outer loop
      vertex  3.000000e+000 -1.797164e+000 -7.037630e+000
      vertex  3.000000e+000 -8.000000e-001 -6.962370e+000
      vertex  3.000000e+000 -1.250000e+000 -1.000000e+000
    endloop
  endfacet
  facet normal  1.000000e+000  0.000000e+000  0.000000e+000
    outer loop
      vertex  3.000000e+000 -1.797164e+000 -7.037630e+000
      vertex  3.000000e+000 -1.250000e+000 -1.000000e+000
      vertex  3.000000e+000 -2.328317e+000 -4.440892e-016
    endloop
  endfacet
  facet normal  1.000000e+000  0.000000e+000  -0.000000e+000
    outer loop
      vertex  3.000000e+000 -2.328317e+000 -4.440892e-016
      vertex  3.000000e+000 -1.250000e+000 -1.000000e+000
      vertex  3.000000e+000  2.328317e+000 -4.440892e-016
    endloop
  endfacet
  facet normal  1.000000e+000  0.000000e+000  0.000000e+000
    outer loop
      vertex  3.000000e+000  2.328317e+000 -4.440892e-016
      vertex  3.000000e+000 -1.250000e+000 -1.000000e+000
      vertex  3.000000e+000  1.250000e+000 -1.000000e+000
    endloop
  endfacet
  facet normal  1.000000e+000  -0.000000e+000  0.000000e+000
    outer loop
      vertex  3.000000e+000  2.328317e+000 -4.440892e-016
      vertex  3.000000e+000  1.250000e+000 -1.000000e+000
      vertex  3.000000e+000  1.797164e+000 -7.037630e+000
    endloop
  endfacet
  facet normal  1.000000e+000  0.000000e+000  0.000000e+000
    outer loop
      vertex  3.000000e+000  1.797164e+000 -7.037630e+000
      vertex  3.000000e+000  1.250000e+000 -1.000000e+000
      vertex  3.000000e+000  8.000000e-001 -6.962370e+000
    endloop
  endfacet
  facet normal  1.000000e+000  0.000000e+000  0.000000e+000
    outer loop
      vertex  3.000000e+000  1.797164e+000 -7.037630e+000
      vertex  3.000000e+000  8.000000e-001 -6.962370e+000
      vertex  3.000000e+000  1.711552e+000 -7.281879e+000
    endloop
  endfacet
  facet normal  1.000000e+000  0.000000e+000  0.000000e+000
    outer loop
      vertex  3.000000e+000  1.711552e+000 -7.281879e+000
      vertex  3.000000e+000  8.000000e-001 -6.962370e+000
      vertex  3.000000e+000  8.479825e-001 -7.216703e+000
    endloop
  endfacet
  facet normal  1.000000e+000  0.000000e+000  0.000000e+000
    outer loop
      vertex  3.000000e+000  1.711552e+000 -7.281879e+000
      vertex  3.000000e+000  8.479825e-001 -7.216703e+000
      vertex  3.000000e+000  1.515285e+000 -7.450600e+000
    endloop
  endfacet
  facet normal  9.999999e-001  0.000000e+000  0.000000e+000
    outer loop
      vertex  3.000000e+000  1.515285e+000 -7.450600e+000
      vertex  3.000000e+000  8.479825e-001 -7.216703e+000
      vertex  3.000000e+000  1.016703e+000 -7.412970e+000
    endloop
  endfacet
  facet normal  1.000000e+000  0.000000e+000  0.000000e+000
    outer loop
      vertex  3.000000e+000  1.515285e+000 -7.450600e+000
      vertex  3.000000e+000  1.016703e+000 -7.412970e+000
      vertex  3.000000e+000  1.260952e+000 -7.498582e+000
    endloop
  endfacet
  facet normal  1.000000e+000  -0.000000e+000  0.000000e+000
    outer loop
      vertex  3.000000e+000 -8.479825e-001 -7.216703e+000
      vertex  3.000000e+000 -1.711552e+000 -7.281879e+000
      vertex  3.000000e+000 -1.016703e+000 -7.412970e+000
    endloop
  endfacet
  facet normal  1.000000e+000  0.000000e+000  0.000000e+000
    outer loop
      vertex  3.000000e+000 -1.016703e+000 -7.412970e+000
      vertex  3.000000e+000 -1.711552e+000 -7.281879e+000
      vertex  3.000000e+000 -1.515285e+000 -7.450600e+000
    endloop
  endfacet
  facet normal  1.000000e+000  -0.000000e+000  0.000000e+000
    outer loop
      vertex  3.000000e+000 -1.016703e+000 -7.412970e+000
      vertex  3.000000e+000 -1.515285e+000 -7.450600e+000
      vertex  3.000000e+000 -1.260952e+000 -7.498582e+000
    endloop
  endfacet
  facet normal -1.000000e+000  0.000000e+000  0.000000e+000
    outer loop
      vertex  0.000000e+000 -1.797164e+000 -7.037630e+000
      vertex  0.000000e+000 -2.328317e+000 -4.440892e-016
      vertex  0.000000e+000 -1.250000e+000 -1.000000e+000
    endloop
  endfacet
  facet normal -1.000000e+000  0.000000e+000  -0.000000e+000
    outer loop
      vertex  0.000000e+000 -1.797164e+000 -7.037630e+000
      vertex  0.000000e+000 -1.250000e+000 -1.000000e+000
      vertex  0.000000e+000 -8.000000e-001 -6.962370e+000
    endloop
  endfacet
  facet normal -1.000000e+000  0.000000e+000  0.000000e+000
    outer loop
      vertex  0.000000e+000 -1.797164e+000 -7.037630e+000
      vertex  0.000000e+000 -8.000000e-001 -6.962370e+000
      vertex  0.000000e+000 -8.479825e-001 -7.216703e+000
    endloop
  endfacet
  facet normal -9.999999e-001  -0.000000e+000  0.000000e+000
    outer loop
      vertex  0.000000e+000 -1.797164e+000 -7.037630e+000
      vertex  0.000000e+000 -8.479825e-001 -7.216703e+000
      vertex  0.000000e+000 -1.711552e+000 -7.281879e+000
    endloop
  endfacet
  facet normal -1.000000e+000  0.000000e+000  0.000000e+000
    outer loop
      vertex  0.000000e+000  1.260952e+000 -7.498582e+000
      vertex  0.000000e+000  1.016703e+000 -7.412970e+000
      vertex  0.000000e+000  1.515285e+000 -7.450600e+000
    endloop
  endfacet
  facet normal -9.999999e-001  0.000000e+000  0.000000e+000
    outer loop
      vertex  0.000000e+000  1.515285e+000 -7.450600e+000
      vertex  0.000000e+000  1.016703e+000 -7.412970e+000
      vertex  0.000000e+000  8.479825e-001 -7.216703e+000
    endloop
  endfacet
  facet normal -1.000000e+000  0.000000e+000  0.000000e+000
    outer loop
      vertex  0.000000e+000  1.515285e+000 -7.450600e+000
      vertex  0.000000e+000  8.479825e-001 -7.216703e+000
      vertex  0.000000e+000  1.711552e+000 -7.281879e+000
    endloop
  endfacet
  facet normal -1.000000e+000  0.000000e+000  0.000000e+000
    outer loop
      vertex  0.000000e+000  1.711552e+000 -7.281879e+000
      vertex  0.000000e+000  8.479825e-001 -7.216703e+000
      vertex  0.000000e+000  8.000000e-001 -6.962370e+000
    endloop
  endfacet
  facet normal -1.000000e+000  0.000000e+000  0.000000e+000
    outer loop
      vertex  0.000000e+000  1.711552e+000 -7.281879e+000
      vertex  0.000000e+000  8.000000e-001 -6.962370e+000
      vertex  0.000000e+000  1.797164e+000 -7.037630e+000
    endloop
  endfacet
  facet normal -1.000000e+000  0.000000e+000  0.000000e+000
    outer loop
      vertex  0.000000e+000  1.797164e+000 -7.037630e+000
      vertex  0.000000e+000  8.000000e-001 -6.962370e+000
      vertex  0.000000e+000  1.250000e+000 -1.000000e+000
    endloop
  endfacet
  facet normal -1.000000e+000  0.000000e+000  0.000000e+000
    outer loop
      vertex  0.000000e+000  1.797164e+000 -7.037630e+000
      vertex  0.000000e+000  1.250000e+000 -1.000000e+000
      vertex  0.000000e+000  2.328317e+000 -4.440892e-016
    endloop
  endfacet
  facet normal -1.000000e+000  0.000000e+000  0.000000e+000
    outer loop
      vertex  0.000000e+000  2.328317e+000 -4.440892e-016
      vertex  0.000000e+000  1.250000e+000 -1.000000e+000
      vertex  0.000000e+000 -1.250000e+000 -1.000000e+000
    endloop
  endfacet
  facet normal -1.000000e+000  0.000000e+000  0.000000e+000
    outer loop
      vertex  0.000000e+000  2.328317e+000 -4.440892e-016
      vertex  0.000000e+000 -1.250000e+000 -1.000000e+000
      vertex  0.000000e+000 -2.328317e+000 -4.440892e-016
    endloop
  endfacet
  facet normal -1.000000e+000  0.000000e+000  0.000000e+000
    outer loop
      vertex  0.000000e+000 -1.260952e+000 -7.498582e+000
      vertex  0.000000e+000 -1.515285e+000 -7.450600e+000
      vertex  0.000000e+000 -1.016703e+000 -7.412970e+000
    endloop
  endfacet
  facet normal -1.000000e+000  -0.000000e+000  0.000000e+000
    outer loop
      vertex  0.000000e+000 -1.016703e+000 -7.412970e+000
      vertex  0.000000e+000 -1.515285e+000 -7.450600e+000
      vertex  0.000000e+000 -1.711552e+000 -7.281879e+000
    endloop
  endfacet
  facet normal -1.000000e+000  0.000000e+000  0.000000e+000
    outer loop
      vertex  0.000000e+000 -1.016703e+000 -7.412970e+000
      vertex  0.000000e+000 -1.711552e+000 -7.281879e+000
      vertex  0.000000e+000 -8.479825e-001 -7.216703e+000
    endloop
  endfacet
  facet normal  0.000000e+000  0.000000e+000  1.000000e+000
    outer loop
      vertex  3.000000e+000 -2.328317e+000 -4.440892e-016
      vertex  3.000000e+000  2.328317e+000 -4.440892e-016
      vertex  0.000000e+000 -2.328317e+000 -4.440892e-016
    endloop
  endfacet
  facet normal  0.000000e+000  0.000000e+000  1.000000e+000
    outer loop
      vertex  0.000000e+000 -2.328317e+000 -4.440892e-016
      vertex  3.000000e+000  2.328317e+000 -4.440892e-016
      vertex  0.000000e+000  2.328317e+000 -4.440892e-016
    endloop
  endfacet
  facet normal  0.000000e+000  9.971640e-001 -7.525930e-002
    outer loop
      vertex  3.000000e+000  2.328317e+000 -4.440892e-016
      vertex  3.000000e+000  1.797164e+000 -7.037630e+000
      vertex  0.000000e+000  2.328317e+000 -4.440892e-016
    endloop
  endfacet
  facet normal  0.000000e+000  9.971640e-001 -7.525930e-002
    outer loop
      vertex  0.000000e+000  2.328317e+000 -4.440892e-016
      vertex  3.000000e+000  1.797164e+000 -7.037630e+000
      vertex  0.000000e+000  1.797164e+000 -7.037630e+000
    endloop
  endfacet
  facet normal  0.000000e+000  9.437081e-001 -3.307793e-001
    outer loop
      vertex  0.000000e+000  1.797164e+000 -7.037630e+000
      vertex  3.000000e+000  1.797164e+000 -7.037630e+000
      vertex  0.000000e+000  1.711552e+000 -7.281879e+000
    endloop
  endfacet
  facet normal  0.000000e+000  9.437081e-001 -3.307793e-001
    outer loop
      vertex  0.000000e+000  1.711552e+000 -7.281879e+000
      vertex  3.000000e+000  1.797164e+000 -7.037630e+000
      vertex  3.000000e+000  1.711552e+000 -7.281879e+000
    endloop
  endfacet
  facet normal  0.000000e+000  6.518849e-001 -7.583179e-001
    outer loop
      vertex  0.000000e+000  1.711552e+000 -7.281879e+000
      vertex  3.000000e+000  1.711552e+000 -7.281879e+000
      vertex  0.000000e+000  1.515285e+000 -7.450600e+000
    endloop
  endfacet
  facet normal  0.000000e+000  6.518849e-001 -7.583179e-001
    outer loop
      vertex  0.000000e+000  1.515285e+000 -7.450600e+000
      vertex  3.000000e+000  1.711552e+000 -7.281879e+000
      vertex  3.000000e+000  1.515285e+000 -7.450600e+000
    endloop
  endfacet
  facet normal  0.000000e+000  1.853891e-001 -9.826652e-001
    outer loop
      vertex  0.000000e+000  1.515285e+000 -7.450600e+000
      vertex  3.000000e+000  1.515285e+000 -7.450600e+000
      vertex  0.000000e+000  1.260952e+000 -7.498582e+000
    endloop
  endfacet
  facet normal  0.000000e+000  1.853891e-001 -9.826652e-001
    outer loop
      vertex  0.000000e+000  1.260952e+000 -7.498582e+000
      vertex  3.000000e+000  1.515285e+000 -7.450600e+000
      vertex  3.000000e+000  1.260952e+000 -7.498582e+000
    endloop
  endfacet
  facet normal  -0.000000e+000 -3.307788e-001 -9.437083e-001
    outer loop
      vertex  0.000000e+000  1.260952e+000 -7.498582e+000
      vertex  3.000000e+000  1.260952e+000 -7.498582e+000
      vertex  0.000000e+000  1.016703e+000 -7.412970e+000
    endloop
  endfacet
  facet normal  0.000000e+000 -3.307788e-001 -9.437083e-001
    outer loop
      vertex  0.000000e+000  1.016703e+000 -7.412970e+000
      vertex  3.000000e+000  1.260952e+000 -7.498582e+000
      vertex  3.000000e+000  1.016703e+000 -7.412970e+000
    endloop
  endfacet
  facet normal  -0.000000e+000 -7.583179e-001 -6.518849e-001
    outer loop
      vertex  0.000000e+000  1.016703e+000 -7.412970e+000
      vertex  3.000000e+000  1.016703e+000 -7.412970e+000
      vertex  0.000000e+000  8.479825e-001 -7.216703e+000
    endloop
  endfacet
  facet normal  0.000000e+000 -7.583179e-001 -6.518849e-001
    outer loop
      vertex  0.000000e+000  8.479825e-001 -7.216703e+000
      vertex  3.000000e+000  1.016703e+000 -7.412970e+000
      vertex  3.000000e+000  8.479825e-001 -7.216703e+000
    endloop
  endfacet
  facet normal  -0.000000e+000 -9.826651e-001 -1.853901e-001
    outer loop
      vertex  0.000000e+000  8.479825e-001 -7.216703e+000
      vertex  3.000000e+000  8.479825e-001 -7.216703e+000
      vertex  0.000000e+000  8.000000e-001 -6.962370e+000
    endloop
  endfacet
  facet normal  0.000000e+000 -9.826651e-001 -1.853901e-001
    outer loop
      vertex  0.000000e+000  8.000000e-001 -6.962370e+000
      vertex  3.000000e+000  8.479825e-001 -7.216703e+000
      vertex  3.000000e+000  8.000000e-001 -6.962370e+000
    endloop
  endfacet
  facet normal  0.000000e+000 -9.971640e-001  7.525929e-002
    outer loop
      vertex  3.000000e+000  8.000000e-001 -6.962370e+000
      vertex  3.000000e+000  1.250000e+000 -1.000000e+000
      vertex  0.000000e+000  8.000000e-001 -6.962370e+000
    endloop
  endfacet
  facet normal  0.000000e+000 -9.971640e-001  7.525929e-002
    outer loop
      vertex  0.000000e+000  8.000000e-001 -6.962370e+000
      vertex  3.000000e+000  1.250000e+000 -1.000000e+000
      vertex  0.000000e+000  1.250000e+000 -1.000000e+000
    endloop
  endfacet
  facet normal  -0.000000e+000  0.000000e+000 -1.000000e+000
    outer loop
      vertex  0.000000e+000  1.250000e+000 -1.000000e+000
      vertex  3.000000e+000  1.250000e+000 -1.000000e+000
      vertex  0.000000e+000 -1.250000e+000 -1.000000e+000
    endloop
  endfacet
  facet normal  0.000000e+000  0.000000e+000 -1.000000e+000
    outer loop
      vertex  0.000000e+000 -1.250000e+000 -1.000000e+000
      vertex  3.000000e+000  1.250000e+000 -1.000000e+000
      vertex  3.000000e+000 -1.250000e+000 -1.000000e+000
    endloop
  endfacet
  facet normal  0.000000e+000  9.971640e-001  7.525929e-002
    outer loop
      vertex  3.000000e+000 -1.250000e+000 -1.000000e+000
      vertex  3.000000e+000 -8.000000e-001 -6.962370e+000
      vertex  0.000000e+000 -1.250000e+000 -1.000000e+000
    endloop
  endfacet
  facet normal  0.000000e+000  9.971640e-001  7.525929e-002
    outer loop
      vertex  0.000000e+000 -1.250000e+000 -1.000000e+000
      vertex  3.000000e+000 -8.000000e-001 -6.962370e+000
      vertex  0.000000e+000 -8.000000e-001 -6.962370e+000
    endloop
  endfacet
  facet normal  0.000000e+000  9.826651e-001 -1.853901e-001
    outer loop
      vertex  0.000000e+000 -8.000000e-001 -6.962370e+000
      vertex  3.000000e+000 -8.000000e-001 -6.962370e+000
      vertex  0.000000e+000 -8.479825e-001 -7.216703e+000
    endloop
  endfacet
  facet normal  0.000000e+000  9.826651e-001 -1.853901e-001
    outer loop
      vertex  0.000000e+000 -8.479825e-001 -7.216703e+000
      vertex  3.000000e+000 -8.000000e-001 -6.962370e+000
      vertex  3.000000e+000 -8.479825e-001 -7.216703e+000
    endloop
  endfacet
  facet normal  0.000000e+000  7.583179e-001 -6.518849e-001
    outer loop
      vertex  0.000000e+000 -8.479825e-001 -7.216703e+000
      vertex  3.000000e+000 -8.479825e-001 -7.216703e+000
      vertex  0.000000e+000 -1.016703e+000 -7.412970e+000
    endloop
  endfacet
  facet normal  0.000000e+000  7.583179e-001 -6.518849e-001
    outer loop
      vertex  0.000000e+000 -1.016703e+000 -7.412970e+000
      vertex  3.000000e+000 -8.479825e-001 -7.216703e+000
      vertex  3.000000e+000 -1.016703e+000 -7.412970e+000
    endloop
  endfacet
  facet normal  0.000000e+000  3.307788e-001 -9.437083e-001
    outer loop
      vertex  0.000000e+000 -1.016703e+000 -7.412970e+000
      vertex  3.000000e+000 -1.016703e+000 -7.412970e+000
      vertex  0.000000e+000 -1.260952e+000 -7.498582e+000
    endloop
  endfacet
  facet normal  0.000000e+000  3.307788e-001 -9.437083e-001
    outer loop
      vertex  0.000000e+000 -1.260952e+000 -7.498582e+000
      vertex  3.000000e+000 -1.016703e+000 -7.412970e+000
      vertex  3.000000e+000 -1.260952e+000 -7.498582e+000
    endloop
  endfacet
  facet normal  -0.000000e+000 -1.853891e-001 -9.826652e-001
    outer loop
      vertex  0.000000e+000 -1.260952e+000 -7.498582e+000
      vertex  3.000000e+000 -1.260952e+000 -7.498582e+000
      vertex  0.000000e+000 -1.515285e+000 -7.450600e+000
    endloop
  endfacet
  facet normal  0.000000e+000 -1.853891e-001 -9.826652e-001
    outer loop
      vertex  0.000000e+000 -1.515285e+000 -7.450600e+000
      vertex  3.000000e+000 -1.260952e+000 -7.498582e+000
      vertex  3.000000e+000 -1.515285e+000 -7.450600e+000
    endloop
  endfacet
  facet normal  -0.000000e+000 -6.518849e-001 -7.583179e-001
    outer loop
      vertex  0.000000e+000 -1.515285e+000 -7.450600e+000
      vertex  3.000000e+000 -1.515285e+000 -7.450600e+000
      vertex  0.000000e+000 -1.711552e+000 -7.281879e+000
    endloop
  endfacet
  facet normal  0.000000e+000 -6.518849e-001 -7.583179e-001
    outer loop
      vertex  0.000000e+000 -1.711552e+000 -7.281879e+000
      vertex  3.000000e+000 -1.515285e+000 -7.450600e+000
      vertex  3.000000e+000 -1.711552e+000 -7.281879e+000
    endloop
  endfacet
  facet normal  -0.000000e+000 -9.437081e-001 -3.307793e-001
    outer loop
      vertex  0.000000e+000 -1.711552e+000 -7.281879e+000
      vertex  3.000000e+000 -1.711552e+000 -7.281879e+000
      vertex  0.000000e+000 -1.797164e+000 -7.037630e+000
    endloop
  endfacet
  facet normal  0.000000e+000 -9.437081e-001 -3.307793e-001
    outer loop
      vertex  0.000000e+000 -1.797164e+000 -7.037630e+000
      vertex  3.000000e+000 -1.711552e+000 -7.281879e+000
      vertex  3.000000e+000 -1.797164e+000 -7.037630e+000
    endloop
  endfacet
  facet normal  0.000000e+000 -9.971640e-001 -7.525930e-002
    outer loop
      vertex  3.000000e+000 -1.797164e+000 -7.037630e+000
      vertex  3.000000e+000 -2.328317e+000 -4.440892e-016
      vertex  0.000000e+000 -1.797164e+000 -7.037630e+000
    endloop
  endfacet
  facet normal  0.000000e+000 -9.971640e-001 -7.525930e-002
    outer loop
      vertex  0.000000e+000 -1.797164e+000 -7.037630e+000
      vertex  3.000000e+000 -2.328317e+000 -4.440892e-016
      vertex  0.000000e+000 -2.328317e+000 -4.440892e-016
    endloop
  endfacet
endsolid CATIA STL
