solid CATIA STL
  facet normal  0.000000e+000  0.000000e+000  1.000000e+000
    outer loop
      vertex -2.500000e-001  6.000000e-001  2.800000e+000
      vertex -5.944151e-001  5.314916e-001  2.800000e+000
      vertex -3.552714e-013  6.000000e-001  2.800000e+000
    endloop
  endfacet
  facet normal  0.000000e+000  0.000000e+000  1.000000e+000
    outer loop
      vertex  1.150000e+000 -3.000000e-001  2.800000e+000
      vertex  1.081492e+000  4.441509e-002  2.800000e+000
      vertex  2.500005e-001  0.000000e+000  2.800000e+000
    endloop
  endfacet
  facet normal  0.000000e+000  -0.000000e+000  9.999999e-001
    outer loop
      vertex -2.500000e-001  0.000000e+000  2.800000e+000
      vertex  2.500005e-001  0.000000e+000  2.800000e+000
      vertex  1.081492e+000  4.441509e-002  2.800000e+000
    endloop
  endfacet
  facet normal  0.000000e+000  0.000000e+000  9.999999e-001
    outer loop
      vertex -2.500000e-001  0.000000e+000  2.800000e+000
      vertex  1.081492e+000  4.441509e-002  2.800000e+000
      vertex -1.081492e+000  4.441509e-002  2.800000e+000
    endloop
  endfacet
  facet normal  0.000000e+000  0.000000e+000  1.000000e+000
    outer loop
      vertex -2.500000e-001  0.000000e+000  2.800000e+000
      vertex -1.081492e+000  4.441509e-002  2.800000e+000
      vertex -1.150000e+000 -3.000000e-001  2.800000e+000
    endloop
  endfacet
  facet normal  -0.000000e+000  0.000000e+000  1.000000e+000
    outer loop
      vertex -2.500000e-001  0.000000e+000  2.800000e+000
      vertex -1.150000e+000 -3.000000e-001  2.800000e+000
      vertex -1.150000e+000 -1.050000e+002  2.800000e+000
    endloop
  endfacet
  facet normal  0.000000e+000  0.000000e+000  9.999999e-001
    outer loop
      vertex -2.500000e-001  0.000000e+000  2.800000e+000
      vertex -1.150000e+000 -1.050000e+002  2.800000e+000
      vertex -2.500000e-001 -1.050000e+002  2.800000e+000
    endloop
  endfacet
  facet normal  -0.000000e+000  0.000000e+000  1.000000e+000
    outer loop
      vertex  2.500000e-001  6.000000e-001  2.800000e+000
      vertex -3.552714e-013  6.000000e-001  2.800000e+000
      vertex  5.944151e-001  5.314916e-001  2.800000e+000
    endloop
  endfacet
  facet normal  0.000000e+000  0.000000e+000  1.000000e+000
    outer loop
      vertex  5.944151e-001  5.314916e-001  2.800000e+000
      vertex -3.552714e-013  6.000000e-001  2.800000e+000
      vertex -5.944151e-001  5.314916e-001  2.800000e+000
    endloop
  endfacet
  facet normal  -0.000000e+000  0.000000e+000  1.000000e+000
    outer loop
      vertex  5.944151e-001  5.314916e-001  2.800000e+000
      vertex -5.944151e-001  5.314916e-001  2.800000e+000
      vertex  8.863961e-001  3.363961e-001  2.800000e+000
    endloop
  endfacet
  facet normal  0.000000e+000  0.000000e+000  1.000000e+000
    outer loop
      vertex  8.863961e-001  3.363961e-001  2.800000e+000
      vertex -5.944151e-001  5.314916e-001  2.800000e+000
      vertex -8.863961e-001  3.363961e-001  2.800000e+000
    endloop
  endfacet
  facet normal  -0.000000e+000  0.000000e+000  1.000000e+000
    outer loop
      vertex  8.863961e-001  3.363961e-001  2.800000e+000
      vertex -8.863961e-001  3.363961e-001  2.800000e+000
      vertex  1.081492e+000  4.441509e-002  2.800000e+000
    endloop
  endfacet
  facet normal  0.000000e+000  0.000000e+000  1.000000e+000
    outer loop
      vertex  1.081492e+000  4.441509e-002  2.800000e+000
      vertex -8.863961e-001  3.363961e-001  2.800000e+000
      vertex -1.081492e+000  4.441509e-002  2.800000e+000
    endloop
  endfacet
  facet normal  -0.000000e+000  0.000000e+000  1.000000e+000
    outer loop
      vertex -2.500000e-001 -1.050000e+002  2.800000e+000
      vertex -1.150000e+000 -1.050000e+002  2.800000e+000
      vertex -3.102886e-001 -1.052250e+002  2.800000e+000
    endloop
  endfacet
  facet normal  0.000000e+000  0.000000e+000  1.000000e+000
    outer loop
      vertex -3.102886e-001 -1.052250e+002  2.800000e+000
      vertex -1.150000e+000 -1.050000e+002  2.800000e+000
      vertex -1.089711e+000 -1.052250e+002  2.800000e+000
    endloop
  endfacet
  facet normal  -0.000000e+000  0.000000e+000  1.000000e+000
    outer loop
      vertex -3.102886e-001 -1.052250e+002  2.800000e+000
      vertex -1.089711e+000 -1.052250e+002  2.800000e+000
      vertex -4.750000e-001 -1.053897e+002  2.800000e+000
    endloop
  endfacet
  facet normal  0.000000e+000  0.000000e+000  1.000000e+000
    outer loop
      vertex -4.750000e-001 -1.053897e+002  2.800000e+000
      vertex -1.089711e+000 -1.052250e+002  2.800000e+000
      vertex -9.250000e-001 -1.053897e+002  2.800000e+000
    endloop
  endfacet
  facet normal  -0.000000e+000  0.000000e+000  1.000000e+000
    outer loop
      vertex -4.750000e-001 -1.053897e+002  2.800000e+000
      vertex -9.250000e-001 -1.053897e+002  2.800000e+000
      vertex -7.000000e-001 -1.054500e+002  2.800000e+000
    endloop
  endfacet
  facet normal  0.000000e+000  0.000000e+000  1.000000e+000
    outer loop
      vertex  1.150000e+000 -3.000000e-001  2.800000e+000
      vertex  2.500005e-001  0.000000e+000  2.800000e+000
      vertex  1.150000e+000 -1.050000e+002  2.800000e+000
    endloop
  endfacet
  facet normal  0.000000e+000  0.000000e+000  9.999999e-001
    outer loop
      vertex  1.150000e+000 -1.050000e+002  2.800000e+000
      vertex  2.500005e-001  0.000000e+000  2.800000e+000
      vertex  2.500000e-001 -1.050000e+002  2.800000e+000
    endloop
  endfacet
  facet normal  -0.000000e+000  0.000000e+000  1.000000e+000
    outer loop
      vertex  1.150000e+000 -1.050000e+002  2.800000e+000
      vertex  2.500000e-001 -1.050000e+002  2.800000e+000
      vertex  1.089711e+000 -1.052250e+002  2.800000e+000
    endloop
  endfacet
  facet normal  0.000000e+000  0.000000e+000  1.000000e+000
    outer loop
      vertex  1.089711e+000 -1.052250e+002  2.800000e+000
      vertex  2.500000e-001 -1.050000e+002  2.800000e+000
      vertex  3.102886e-001 -1.052250e+002  2.800000e+000
    endloop
  endfacet
  facet normal  -0.000000e+000  0.000000e+000  1.000000e+000
    outer loop
      vertex  1.089711e+000 -1.052250e+002  2.800000e+000
      vertex  3.102886e-001 -1.052250e+002  2.800000e+000
      vertex  9.250000e-001 -1.053897e+002  2.800000e+000
    endloop
  endfacet
  facet normal  0.000000e+000  0.000000e+000  1.000000e+000
    outer loop
      vertex  9.250000e-001 -1.053897e+002  2.800000e+000
      vertex  3.102886e-001 -1.052250e+002  2.800000e+000
      vertex  4.750000e-001 -1.053897e+002  2.800000e+000
    endloop
  endfacet
  facet normal  -0.000000e+000  0.000000e+000  1.000000e+000
    outer loop
      vertex  9.250000e-001 -1.053897e+002  2.800000e+000
      vertex  4.750000e-001 -1.053897e+002  2.800000e+000
      vertex  7.000000e-001 -1.054500e+002  2.800000e+000
    endloop
  endfacet
  facet normal  0.000000e+000  0.000000e+000 -1.000000e+000
    outer loop
      vertex -3.552714e-013  6.000000e-001  0.000000e+000
      vertex -5.944151e-001  5.314916e-001  0.000000e+000
      vertex -2.500000e-001  6.000000e-001  0.000000e+000
    endloop
  endfacet
  facet normal  0.000000e+000  -0.000000e+000 -1.000000e+000
    outer loop
      vertex  2.500005e-001  0.000000e+000  0.000000e+000
      vertex  1.081492e+000  4.441509e-002  0.000000e+000
      vertex  1.150000e+000 -3.000000e-001  0.000000e+000
    endloop
  endfacet
  facet normal  0.000000e+000  0.000000e+000 -9.999999e-001
    outer loop
      vertex -2.500000e-001  0.000000e+000  0.000000e+000
      vertex -2.500000e-001 -1.050000e+002  0.000000e+000
      vertex -1.150000e+000 -1.050000e+002  0.000000e+000
    endloop
  endfacet
  facet normal  0.000000e+000  0.000000e+000 -1.000000e+000
    outer loop
      vertex -2.500000e-001  0.000000e+000  0.000000e+000
      vertex -1.150000e+000 -1.050000e+002  0.000000e+000
      vertex -1.150000e+000 -3.000000e-001  0.000000e+000
    endloop
  endfacet
  facet normal  0.000000e+000  0.000000e+000 -1.000000e+000
    outer loop
      vertex -2.500000e-001  0.000000e+000  0.000000e+000
      vertex -1.150000e+000 -3.000000e-001  0.000000e+000
      vertex -1.081492e+000  4.441509e-002  0.000000e+000
    endloop
  endfacet
  facet normal  0.000000e+000  0.000000e+000 -9.999999e-001
    outer loop
      vertex -2.500000e-001  0.000000e+000  0.000000e+000
      vertex -1.081492e+000  4.441509e-002  0.000000e+000
      vertex  1.081492e+000  4.441509e-002  0.000000e+000
    endloop
  endfacet
  facet normal  0.000000e+000  0.000000e+000 -9.999999e-001
    outer loop
      vertex -2.500000e-001  0.000000e+000  0.000000e+000
      vertex  1.081492e+000  4.441509e-002  0.000000e+000
      vertex  2.500005e-001  0.000000e+000  0.000000e+000
    endloop
  endfacet
  facet normal  0.000000e+000  0.000000e+000 -1.000000e+000
    outer loop
      vertex  5.944151e-001  5.314916e-001  0.000000e+000
      vertex -3.552714e-013  6.000000e-001  0.000000e+000
      vertex  2.500000e-001  6.000000e-001  0.000000e+000
    endloop
  endfacet
  facet normal  0.000000e+000  0.000000e+000 -1.000000e+000
    outer loop
      vertex -3.552714e-013  6.000000e-001  0.000000e+000
      vertex  5.944151e-001  5.314916e-001  0.000000e+000
      vertex -5.944151e-001  5.314916e-001  0.000000e+000
    endloop
  endfacet
  facet normal  0.000000e+000  0.000000e+000 -1.000000e+000
    outer loop
      vertex -5.944151e-001  5.314916e-001  0.000000e+000
      vertex  5.944151e-001  5.314916e-001  0.000000e+000
      vertex  8.863961e-001  3.363961e-001  0.000000e+000
    endloop
  endfacet
  facet normal  0.000000e+000  0.000000e+000 -1.000000e+000
    outer loop
      vertex -5.944151e-001  5.314916e-001  0.000000e+000
      vertex  8.863961e-001  3.363961e-001  0.000000e+000
      vertex -8.863961e-001  3.363961e-001  0.000000e+000
    endloop
  endfacet
  facet normal  0.000000e+000  0.000000e+000 -1.000000e+000
    outer loop
      vertex -8.863961e-001  3.363961e-001  0.000000e+000
      vertex  8.863961e-001  3.363961e-001  0.000000e+000
      vertex  1.081492e+000  4.441509e-002  0.000000e+000
    endloop
  endfacet
  facet normal  0.000000e+000  0.000000e+000 -1.000000e+000
    outer loop
      vertex -8.863961e-001  3.363961e-001  0.000000e+000
      vertex  1.081492e+000  4.441509e-002  0.000000e+000
      vertex -1.081492e+000  4.441509e-002  0.000000e+000
    endloop
  endfacet
  facet normal  0.000000e+000  0.000000e+000 -1.000000e+000
    outer loop
      vertex -7.000000e-001 -1.054500e+002  0.000000e+000
      vertex -9.250000e-001 -1.053897e+002  0.000000e+000
      vertex -4.750000e-001 -1.053897e+002  0.000000e+000
    endloop
  endfacet
  facet normal  0.000000e+000  0.000000e+000 -1.000000e+000
    outer loop
      vertex -4.750000e-001 -1.053897e+002  0.000000e+000
      vertex -9.250000e-001 -1.053897e+002  0.000000e+000
      vertex -1.089711e+000 -1.052250e+002  0.000000e+000
    endloop
  endfacet
  facet normal  0.000000e+000  0.000000e+000 -1.000000e+000
    outer loop
      vertex -4.750000e-001 -1.053897e+002  0.000000e+000
      vertex -1.089711e+000 -1.052250e+002  0.000000e+000
      vertex -3.102886e-001 -1.052250e+002  0.000000e+000
    endloop
  endfacet
  facet normal  0.000000e+000  0.000000e+000 -1.000000e+000
    outer loop
      vertex -3.102886e-001 -1.052250e+002  0.000000e+000
      vertex -1.089711e+000 -1.052250e+002  0.000000e+000
      vertex -1.150000e+000 -1.050000e+002  0.000000e+000
    endloop
  endfacet
  facet normal  0.000000e+000  0.000000e+000 -1.000000e+000
    outer loop
      vertex -3.102886e-001 -1.052250e+002  0.000000e+000
      vertex -1.150000e+000 -1.050000e+002  0.000000e+000
      vertex -2.500000e-001 -1.050000e+002  0.000000e+000
    endloop
  endfacet
  facet normal  0.000000e+000  0.000000e+000 -1.000000e+000
    outer loop
      vertex  7.000000e-001 -1.054500e+002  0.000000e+000
      vertex  4.750000e-001 -1.053897e+002  0.000000e+000
      vertex  9.250000e-001 -1.053897e+002  0.000000e+000
    endloop
  endfacet
  facet normal  0.000000e+000  0.000000e+000 -1.000000e+000
    outer loop
      vertex  9.250000e-001 -1.053897e+002  0.000000e+000
      vertex  4.750000e-001 -1.053897e+002  0.000000e+000
      vertex  3.102886e-001 -1.052250e+002  0.000000e+000
    endloop
  endfacet
  facet normal  0.000000e+000  0.000000e+000 -1.000000e+000
    outer loop
      vertex  9.250000e-001 -1.053897e+002  0.000000e+000
      vertex  3.102886e-001 -1.052250e+002  0.000000e+000
      vertex  1.089711e+000 -1.052250e+002  0.000000e+000
    endloop
  endfacet
  facet normal  0.000000e+000  0.000000e+000 -1.000000e+000
    outer loop
      vertex  1.089711e+000 -1.052250e+002  0.000000e+000
      vertex  3.102886e-001 -1.052250e+002  0.000000e+000
      vertex  2.500000e-001 -1.050000e+002  0.000000e+000
    endloop
  endfacet
  facet normal  0.000000e+000  0.000000e+000 -1.000000e+000
    outer loop
      vertex  1.089711e+000 -1.052250e+002  0.000000e+000
      vertex  2.500000e-001 -1.050000e+002  0.000000e+000
      vertex  1.150000e+000 -1.050000e+002  0.000000e+000
    endloop
  endfacet
  facet normal  0.000000e+000  0.000000e+000 -9.999999e-001
    outer loop
      vertex  1.150000e+000 -1.050000e+002  0.000000e+000
      vertex  2.500000e-001 -1.050000e+002  0.000000e+000
      vertex  2.500005e-001  0.000000e+000  0.000000e+000
    endloop
  endfacet
  facet normal  0.000000e+000  0.000000e+000 -1.000000e+000
    outer loop
      vertex  1.150000e+000 -1.050000e+002  0.000000e+000
      vertex  2.500005e-001  0.000000e+000  0.000000e+000
      vertex  1.150000e+000 -3.000000e-001  0.000000e+000
    endloop
  endfacet
  facet normal -9.807854e-001  1.950902e-001  0.000000e+000
    outer loop
      vertex -1.150000e+000 -3.000000e-001  0.000000e+000
      vertex -1.150000e+000 -3.000000e-001  2.800000e+000
      vertex -1.081492e+000  4.441509e-002  0.000000e+000
    endloop
  endfacet
  facet normal -9.807854e-001  1.950902e-001  0.000000e+000
    outer loop
      vertex -1.081492e+000  4.441509e-002  0.000000e+000
      vertex -1.150000e+000 -3.000000e-001  2.800000e+000
      vertex -1.081492e+000  4.441509e-002  2.800000e+000
    endloop
  endfacet
  facet normal -8.314697e-001  5.555702e-001  0.000000e+000
    outer loop
      vertex -1.081492e+000  4.441509e-002  0.000000e+000
      vertex -1.081492e+000  4.441509e-002  2.800000e+000
      vertex -8.863961e-001  3.363961e-001  0.000000e+000
    endloop
  endfacet
  facet normal -8.314697e-001  5.555702e-001  0.000000e+000
    outer loop
      vertex -8.863961e-001  3.363961e-001  0.000000e+000
      vertex -1.081492e+000  4.441509e-002  2.800000e+000
      vertex -8.863961e-001  3.363961e-001  2.800000e+000
    endloop
  endfacet
  facet normal -5.555702e-001  8.314697e-001  0.000000e+000
    outer loop
      vertex -8.863961e-001  3.363961e-001  0.000000e+000
      vertex -8.863961e-001  3.363961e-001  2.800000e+000
      vertex -5.944151e-001  5.314916e-001  0.000000e+000
    endloop
  endfacet
  facet normal -5.555702e-001  8.314697e-001  0.000000e+000
    outer loop
      vertex -5.944151e-001  5.314916e-001  0.000000e+000
      vertex -8.863961e-001  3.363961e-001  2.800000e+000
      vertex -5.944151e-001  5.314916e-001  2.800000e+000
    endloop
  endfacet
  facet normal -1.950904e-001  9.807853e-001  0.000000e+000
    outer loop
      vertex -5.944151e-001  5.314916e-001  0.000000e+000
      vertex -5.944151e-001  5.314916e-001  2.800000e+000
      vertex -2.500000e-001  6.000000e-001  0.000000e+000
    endloop
  endfacet
  facet normal -1.950904e-001  9.807853e-001  0.000000e+000
    outer loop
      vertex -2.500000e-001  6.000000e-001  0.000000e+000
      vertex -5.944151e-001  5.314916e-001  2.800000e+000
      vertex -2.500000e-001  6.000000e-001  2.800000e+000
    endloop
  endfacet
  facet normal  0.000000e+000  1.000000e+000  0.000000e+000
    outer loop
      vertex -3.552714e-013  6.000000e-001  0.000000e+000
      vertex -2.500000e-001  6.000000e-001  0.000000e+000
      vertex -3.552714e-013  6.000000e-001  2.800000e+000
    endloop
  endfacet
  facet normal  0.000000e+000  1.000000e+000  0.000000e+000
    outer loop
      vertex -3.552714e-013  6.000000e-001  2.800000e+000
      vertex -2.500000e-001  6.000000e-001  0.000000e+000
      vertex -2.500000e-001  6.000000e-001  2.800000e+000
    endloop
  endfacet
  facet normal  0.000000e+000  1.000000e+000  0.000000e+000
    outer loop
      vertex  2.500000e-001  6.000000e-001  0.000000e+000
      vertex -3.552714e-013  6.000000e-001  0.000000e+000
      vertex  2.500000e-001  6.000000e-001  2.800000e+000
    endloop
  endfacet
  facet normal  0.000000e+000  1.000000e+000  0.000000e+000
    outer loop
      vertex  2.500000e-001  6.000000e-001  2.800000e+000
      vertex -3.552714e-013  6.000000e-001  0.000000e+000
      vertex -3.552714e-013  6.000000e-001  2.800000e+000
    endloop
  endfacet
  facet normal  1.950904e-001  9.807853e-001  0.000000e+000
    outer loop
      vertex  2.500000e-001  6.000000e-001  0.000000e+000
      vertex  2.500000e-001  6.000000e-001  2.800000e+000
      vertex  5.944151e-001  5.314916e-001  0.000000e+000
    endloop
  endfacet
  facet normal  1.950904e-001  9.807853e-001  -0.000000e+000
    outer loop
      vertex  5.944151e-001  5.314916e-001  0.000000e+000
      vertex  2.500000e-001  6.000000e-001  2.800000e+000
      vertex  5.944151e-001  5.314916e-001  2.800000e+000
    endloop
  endfacet
  facet normal  5.555702e-001  8.314697e-001  0.000000e+000
    outer loop
      vertex  5.944151e-001  5.314916e-001  0.000000e+000
      vertex  5.944151e-001  5.314916e-001  2.800000e+000
      vertex  8.863961e-001  3.363961e-001  0.000000e+000
    endloop
  endfacet
  facet normal  5.555702e-001  8.314697e-001  -0.000000e+000
    outer loop
      vertex  8.863961e-001  3.363961e-001  0.000000e+000
      vertex  5.944151e-001  5.314916e-001  2.800000e+000
      vertex  8.863961e-001  3.363961e-001  2.800000e+000
    endloop
  endfacet
  facet normal  8.314697e-001  5.555702e-001  0.000000e+000
    outer loop
      vertex  8.863961e-001  3.363961e-001  0.000000e+000
      vertex  8.863961e-001  3.363961e-001  2.800000e+000
      vertex  1.081492e+000  4.441509e-002  0.000000e+000
    endloop
  endfacet
  facet normal  8.314697e-001  5.555702e-001  -0.000000e+000
    outer loop
      vertex  1.081492e+000  4.441509e-002  0.000000e+000
      vertex  8.863961e-001  3.363961e-001  2.800000e+000
      vertex  1.081492e+000  4.441509e-002  2.800000e+000
    endloop
  endfacet
  facet normal  9.807854e-001  1.950902e-001  0.000000e+000
    outer loop
      vertex  1.081492e+000  4.441509e-002  0.000000e+000
      vertex  1.081492e+000  4.441509e-002  2.800000e+000
      vertex  1.150000e+000 -3.000000e-001  0.000000e+000
    endloop
  endfacet
  facet normal  9.807854e-001  1.950902e-001  -0.000000e+000
    outer loop
      vertex  1.150000e+000 -3.000000e-001  0.000000e+000
      vertex  1.081492e+000  4.441509e-002  2.800000e+000
      vertex  1.150000e+000 -3.000000e-001  2.800000e+000
    endloop
  endfacet
  facet normal  9.999999e-001  -0.000000e+000  0.000000e+000
    outer loop
      vertex  1.150000e+000 -3.000000e-001  2.800000e+000
      vertex  1.150000e+000 -1.050000e+002  2.800000e+000
      vertex  1.150000e+000 -3.000000e-001  0.000000e+000
    endloop
  endfacet
  facet normal  9.999999e-001  0.000000e+000  0.000000e+000
    outer loop
      vertex  1.150000e+000 -3.000000e-001  0.000000e+000
      vertex  1.150000e+000 -1.050000e+002  2.800000e+000
      vertex  1.150000e+000 -1.050000e+002  0.000000e+000
    endloop
  endfacet
  facet normal  9.659255e-001 -2.588206e-001  0.000000e+000
    outer loop
      vertex  1.150000e+000 -1.050000e+002  0.000000e+000
      vertex  1.150000e+000 -1.050000e+002  2.800000e+000
      vertex  1.089711e+000 -1.052250e+002  0.000000e+000
    endloop
  endfacet
  facet normal  9.659255e-001 -2.588206e-001  0.000000e+000
    outer loop
      vertex  1.089711e+000 -1.052250e+002  0.000000e+000
      vertex  1.150000e+000 -1.050000e+002  2.800000e+000
      vertex  1.089711e+000 -1.052250e+002  2.800000e+000
    endloop
  endfacet
  facet normal  7.071059e-001 -7.071077e-001  0.000000e+000
    outer loop
      vertex  1.089711e+000 -1.052250e+002  0.000000e+000
      vertex  1.089711e+000 -1.052250e+002  2.800000e+000
      vertex  9.250000e-001 -1.053897e+002  0.000000e+000
    endloop
  endfacet
  facet normal  7.071059e-001 -7.071077e-001  0.000000e+000
    outer loop
      vertex  9.250000e-001 -1.053897e+002  0.000000e+000
      vertex  1.089711e+000 -1.052250e+002  2.800000e+000
      vertex  9.250000e-001 -1.053897e+002  2.800000e+000
    endloop
  endfacet
  facet normal  2.588147e-001 -9.659271e-001  0.000000e+000
    outer loop
      vertex  9.250000e-001 -1.053897e+002  0.000000e+000
      vertex  9.250000e-001 -1.053897e+002  2.800000e+000
      vertex  7.000000e-001 -1.054500e+002  0.000000e+000
    endloop
  endfacet
  facet normal  2.588147e-001 -9.659271e-001  0.000000e+000
    outer loop
      vertex  7.000000e-001 -1.054500e+002  0.000000e+000
      vertex  9.250000e-001 -1.053897e+002  2.800000e+000
      vertex  7.000000e-001 -1.054500e+002  2.800000e+000
    endloop
  endfacet
  facet normal -2.588147e-001 -9.659271e-001  -0.000000e+000
    outer loop
      vertex  7.000000e-001 -1.054500e+002  0.000000e+000
      vertex  7.000000e-001 -1.054500e+002  2.800000e+000
      vertex  4.750000e-001 -1.053897e+002  0.000000e+000
    endloop
  endfacet
  facet normal -2.588147e-001 -9.659271e-001  0.000000e+000
    outer loop
      vertex  4.750000e-001 -1.053897e+002  0.000000e+000
      vertex  7.000000e-001 -1.054500e+002  2.800000e+000
      vertex  4.750000e-001 -1.053897e+002  2.800000e+000
    endloop
  endfacet
  facet normal -7.071059e-001 -7.071077e-001  -0.000000e+000
    outer loop
      vertex  4.750000e-001 -1.053897e+002  0.000000e+000
      vertex  4.750000e-001 -1.053897e+002  2.800000e+000
      vertex  3.102886e-001 -1.052250e+002  0.000000e+000
    endloop
  endfacet
  facet normal -7.071059e-001 -7.071077e-001  0.000000e+000
    outer loop
      vertex  3.102886e-001 -1.052250e+002  0.000000e+000
      vertex  4.750000e-001 -1.053897e+002  2.800000e+000
      vertex  3.102886e-001 -1.052250e+002  2.800000e+000
    endloop
  endfacet
  facet normal -9.659255e-001 -2.588207e-001  -0.000000e+000
    outer loop
      vertex  3.102886e-001 -1.052250e+002  0.000000e+000
      vertex  3.102886e-001 -1.052250e+002  2.800000e+000
      vertex  2.500000e-001 -1.050000e+002  0.000000e+000
    endloop
  endfacet
  facet normal -9.659255e-001 -2.588207e-001  0.000000e+000
    outer loop
      vertex  2.500000e-001 -1.050000e+002  0.000000e+000
      vertex  3.102886e-001 -1.052250e+002  2.800000e+000
      vertex  2.500000e-001 -1.050000e+002  2.800000e+000
    endloop
  endfacet
  facet normal -1.000000e+000  4.541306e-009  0.000000e+000
    outer loop
      vertex  2.500000e-001 -1.050000e+002  2.800000e+000
      vertex  2.500005e-001  0.000000e+000  2.800000e+000
      vertex  2.500000e-001 -1.050000e+002  0.000000e+000
    endloop
  endfacet
  facet normal -1.000000e+000  4.541306e-009  0.000000e+000
    outer loop
      vertex  2.500000e-001 -1.050000e+002  0.000000e+000
      vertex  2.500005e-001  0.000000e+000  2.800000e+000
      vertex  2.500005e-001  0.000000e+000  0.000000e+000
    endloop
  endfacet
  facet normal  0.000000e+000 -1.000000e+000  0.000000e+000
    outer loop
      vertex -2.500000e-001  0.000000e+000  0.000000e+000
      vertex  2.500005e-001  0.000000e+000  0.000000e+000
      vertex -2.500000e-001  0.000000e+000  2.800000e+000
    endloop
  endfacet
  facet normal  0.000000e+000 -1.000000e+000  0.000000e+000
    outer loop
      vertex -2.500000e-001  0.000000e+000  2.800000e+000
      vertex  2.500005e-001  0.000000e+000  0.000000e+000
      vertex  2.500005e-001  0.000000e+000  2.800000e+000
    endloop
  endfacet
  facet normal  1.000000e+000  0.000000e+000  0.000000e+000
    outer loop
      vertex -2.500000e-001 -1.050000e+002  2.800000e+000
      vertex -2.500000e-001 -1.050000e+002  0.000000e+000
      vertex -2.500000e-001  0.000000e+000  2.800000e+000
    endloop
  endfacet
  facet normal  1.000000e+000  0.000000e+000  0.000000e+000
    outer loop
      vertex -2.500000e-001  0.000000e+000  2.800000e+000
      vertex -2.500000e-001 -1.050000e+002  0.000000e+000
      vertex -2.500000e-001  0.000000e+000  0.000000e+000
    endloop
  endfacet
  facet normal  9.659255e-001 -2.588207e-001  0.000000e+000
    outer loop
      vertex -2.500000e-001 -1.050000e+002  0.000000e+000
      vertex -2.500000e-001 -1.050000e+002  2.800000e+000
      vertex -3.102886e-001 -1.052250e+002  0.000000e+000
    endloop
  endfacet
  facet normal  9.659255e-001 -2.588207e-001  0.000000e+000
    outer loop
      vertex -3.102886e-001 -1.052250e+002  0.000000e+000
      vertex -2.500000e-001 -1.050000e+002  2.800000e+000
      vertex -3.102886e-001 -1.052250e+002  2.800000e+000
    endloop
  endfacet
  facet normal  7.071059e-001 -7.071077e-001  0.000000e+000
    outer loop
      vertex -3.102886e-001 -1.052250e+002  0.000000e+000
      vertex -3.102886e-001 -1.052250e+002  2.800000e+000
      vertex -4.750000e-001 -1.053897e+002  0.000000e+000
    endloop
  endfacet
  facet normal  7.071059e-001 -7.071077e-001  0.000000e+000
    outer loop
      vertex -4.750000e-001 -1.053897e+002  0.000000e+000
      vertex -3.102886e-001 -1.052250e+002  2.800000e+000
      vertex -4.750000e-001 -1.053897e+002  2.800000e+000
    endloop
  endfacet
  facet normal  2.588147e-001 -9.659271e-001  0.000000e+000
    outer loop
      vertex -4.750000e-001 -1.053897e+002  0.000000e+000
      vertex -4.750000e-001 -1.053897e+002  2.800000e+000
      vertex -7.000000e-001 -1.054500e+002  0.000000e+000
    endloop
  endfacet
  facet normal  2.588147e-001 -9.659271e-001  0.000000e+000
    outer loop
      vertex -7.000000e-001 -1.054500e+002  0.000000e+000
      vertex -4.750000e-001 -1.053897e+002  2.800000e+000
      vertex -7.000000e-001 -1.054500e+002  2.800000e+000
    endloop
  endfacet
  facet normal -2.588147e-001 -9.659271e-001  -0.000000e+000
    outer loop
      vertex -7.000000e-001 -1.054500e+002  0.000000e+000
      vertex -7.000000e-001 -1.054500e+002  2.800000e+000
      vertex -9.250000e-001 -1.053897e+002  0.000000e+000
    endloop
  endfacet
  facet normal -2.588147e-001 -9.659271e-001  0.000000e+000
    outer loop
      vertex -9.250000e-001 -1.053897e+002  0.000000e+000
      vertex -7.000000e-001 -1.054500e+002  2.800000e+000
      vertex -9.250000e-001 -1.053897e+002  2.800000e+000
    endloop
  endfacet
  facet normal -7.071059e-001 -7.071077e-001  -0.000000e+000
    outer loop
      vertex -9.250000e-001 -1.053897e+002  0.000000e+000
      vertex -9.250000e-001 -1.053897e+002  2.800000e+000
      vertex -1.089711e+000 -1.052250e+002  0.000000e+000
    endloop
  endfacet
  facet normal -7.071059e-001 -7.071077e-001  0.000000e+000
    outer loop
      vertex -1.089711e+000 -1.052250e+002  0.000000e+000
      vertex -9.250000e-001 -1.053897e+002  2.800000e+000
      vertex -1.089711e+000 -1.052250e+002  2.800000e+000
    endloop
  endfacet
  facet normal -9.659255e-001 -2.588206e-001  -0.000000e+000
    outer loop
      vertex -1.089711e+000 -1.052250e+002  0.000000e+000
      vertex -1.089711e+000 -1.052250e+002  2.800000e+000
      vertex -1.150000e+000 -1.050000e+002  0.000000e+000
    endloop
  endfacet
  facet normal -9.659255e-001 -2.588206e-001  0.000000e+000
    outer loop
      vertex -1.150000e+000 -1.050000e+002  0.000000e+000
      vertex -1.089711e+000 -1.052250e+002  2.800000e+000
      vertex -1.150000e+000 -1.050000e+002  2.800000e+000
    endloop
  endfacet
  facet normal -9.999999e-001  0.000000e+000  0.000000e+000
    outer loop
      vertex -1.150000e+000 -3.000000e-001  2.800000e+000
      vertex -1.150000e+000 -3.000000e-001  0.000000e+000
      vertex -1.150000e+000 -1.050000e+002  2.800000e+000
    endloop
  endfacet
  facet normal -9.999999e-001  0.000000e+000  0.000000e+000
    outer loop
      vertex -1.150000e+000 -1.050000e+002  2.800000e+000
      vertex -1.150000e+000 -3.000000e-001  0.000000e+000
      vertex -1.150000e+000 -1.050000e+002  0.000000e+000
    endloop
  endfacet
endsolid CATIA STL
